<?xml version="1.0" standalone="no"?>
<!DOCTYPE svg PUBLIC "-//W3C//DTD SVG 20010904//EN"
 "http://www.w3.org/TR/2001/REC-SVG-20010904/DTD/svg10.dtd">
<svg version="1.0" xmlns="http://www.w3.org/2000/svg"
 width="244.000000pt" height="244.000000pt" viewBox="0 0 244.000000 244.000000"
 preserveAspectRatio="xMidYMid meet">
<metadata>
Created by potrace 1.14, written by Peter Selinger 2001-2017
</metadata>
<g transform="translate(0.000000,244.000000) scale(0.100000,-0.100000)"
fill="#000000" stroke="none">
<path d="M104 2222 c3 -5 -3 -18 -14 -29 -17 -19 -24 -63 -10 -63 3 0 7 -10 7
-22 1 -13 7 -24 12 -26 8 -3 7 -10 0 -24 -8 -15 -8 -19 0 -14 6 4 12 0 12 -8
2 -19 5 -35 9 -38 5 -5 9 -64 10 -145 2 -105 25 -154 114 -247 36 -37 67 -74
67 -82 1 -8 3 -18 4 -24 1 -5 3 -17 4 -26 1 -10 7 -14 17 -10 8 3 13 2 10 -3
-3 -4 15 -29 39 -56 25 -26 45 -56 45 -67 0 -11 4 -17 9 -14 10 7 9 -20 -2
-30 -4 -4 0 -16 10 -26 12 -13 13 -18 3 -18 -7 0 -10 -3 -7 -7 4 -3 1 -13 -6
-21 -10 -13 -9 -14 2 -8 19 12 -19 -46 -41 -62 -10 -7 -16 -17 -13 -22 3 -5 1
-11 -5 -15 -5 -3 -10 -1 -10 6 0 7 -9 2 -19 -10 -14 -16 -21 -18 -24 -9 -4 11
-6 10 -6 0 -1 -7 -5 -10 -11 -7 -5 3 -10 1 -10 -5 0 -6 -6 -8 -12 -4 -7 4 -10
4 -6 0 4 -5 3 -19 -2 -32 -7 -17 -6 -24 3 -24 8 0 9 -3 1 -8 -17 -12 -23 -39
-11 -51 9 -9 9 -12 0 -9 -6 2 -11 0 -12 -5 0 -4 -7 -20 -15 -36 -9 -16 -12
-31 -9 -35 4 -3 0 -6 -7 -6 -7 0 -10 -3 -7 -7 4 -3 2 -12 -5 -20 -6 -7 -8 -16
-5 -20 4 -3 1 -15 -5 -27 -7 -11 -12 -30 -13 -41 0 -11 -4 -26 -9 -34 -6 -10
-5 -12 2 -7 8 5 10 -4 7 -29 -3 -24 -1 -35 8 -35 8 0 7 -4 -3 -10 -9 -6 -10
-10 -3 -10 6 0 11 -8 11 -18 0 -9 2 -30 6 -47 6 -27 15 -77 20 -112 1 -7 5
-15 9 -19 3 -4 2 -15 -3 -25 -7 -11 -7 -20 0 -24 6 -3 6 -15 0 -29 -5 -15 -5
-27 3 -35 7 -7 7 -11 1 -11 -6 0 -11 -7 -11 -15 0 -8 4 -15 9 -15 5 0 4 -9 -2
-20 -7 -12 -7 -20 -1 -20 5 0 9 -14 8 -32 l-2 -32 122 -1 c68 0 123 3 124 8 6
50 1 72 -17 75 -50 7 -64 14 -74 32 -25 48 73 166 146 176 73 10 115 11 120 2
3 -4 13 -8 23 -8 22 0 54 -35 70 -77 12 -29 11 -155 0 -203 -3 -13 18 -15 151
-15 131 0 155 2 155 15 0 8 -18 24 -41 35 -57 28 -77 51 -79 93 -3 40 18 92
37 92 6 0 9 3 5 6 -7 7 29 44 44 44 5 0 8 4 4 9 -3 6 2 14 11 19 9 5 15 12 15
15 -1 4 1 7 4 7 3 0 16 11 29 25 13 13 26 22 29 18 4 -3 7 0 7 7 0 7 3 10 7 7
3 -4 12 -2 20 4 7 6 13 8 13 5 0 -4 9 -2 19 4 14 7 22 7 26 0 4 -6 12 -7 18
-3 19 12 37 12 37 2 0 -6 4 -8 9 -5 13 8 42 -4 35 -15 -3 -5 0 -9 5 -9 6 0 11
6 11 13 0 6 5 4 11 -6 6 -9 16 -14 22 -11 7 4 9 4 5 0 -3 -4 9 -23 29 -42 19
-19 32 -34 28 -34 -4 0 7 -14 24 -31 17 -17 29 -35 25 -40 -3 -5 2 -9 10 -9 9
0 15 -3 14 -7 -4 -15 13 -53 24 -53 6 0 8 -9 5 -20 -3 -11 -1 -20 5 -20 5 0 7
-3 4 -8 -2 -4 2 -22 10 -41 14 -32 15 -33 33 -17 14 13 21 14 26 6 6 -9 10 -9
16 1 7 11 9 11 9 1 0 -9 5 -10 19 -2 14 7 21 6 24 -3 4 -8 6 -9 6 0 1 11 26 7
75 -13 15 -6 18 -4 12 7 -4 8 -1 6 7 -3 8 -10 17 -15 20 -12 3 3 15 1 26 -5
19 -11 20 -10 12 11 -4 13 -6 29 -3 37 3 8 0 11 -7 7 -6 -4 -11 -2 -11 3 0 6
-5 11 -11 11 -5 0 -7 -6 -3 -12 4 -7 -2 -4 -14 6 -12 11 -22 16 -22 12 0 -4
-7 0 -16 8 -8 9 -20 13 -26 10 -7 -5 -8 -2 -3 6 5 8 2 17 -7 24 -15 11 -63
100 -49 91 5 -2 8 12 8 33 0 22 15 69 38 116 21 44 40 96 42 115 3 20 9 38 14
39 5 2 6 9 2 15 -9 15 -10 56 -1 51 4 -3 8 -2 9 3 0 4 3 17 5 28 3 11 6 26 6
33 1 6 5 12 10 12 5 0 6 5 3 10 -3 6 -2 10 2 10 5 0 14 9 21 21 11 17 11 20 0
14 -7 -3 -5 0 4 8 10 8 15 17 11 20 -3 4 -2 7 4 7 6 0 13 9 16 21 3 12 10 18
15 15 6 -3 12 1 16 9 3 8 1 15 -5 15 -6 0 -6 6 0 18 7 13 7 22 0 29 -7 7 -5
15 5 25 8 9 12 18 9 22 -3 3 3 9 13 13 10 4 25 12 31 19 13 12 29 12 96 -1 25
-5 42 -3 52 5 11 9 15 10 15 1 0 -8 6 -7 16 3 8 9 20 14 25 10 5 -3 12 1 15 9
3 8 16 13 30 11 13 -1 22 1 19 6 -4 7 8 15 28 19 17 3 49 45 51 66 0 13 4 21
7 19 3 -2 12 8 19 21 7 13 17 22 22 19 6 -4 8 4 7 17 -2 13 1 31 6 39 10 16
17 45 8 37 -8 -9 -67 15 -86 34 -9 10 -18 30 -19 44 -1 14 -6 25 -11 25 -4 0
-3 9 3 20 6 11 8 20 5 20 -3 0 0 7 7 15 32 39 55 57 79 62 19 3 25 10 24 26
-1 12 0 27 4 32 3 6 7 18 8 28 2 9 4 25 6 35 1 9 5 22 8 27 3 6 5 29 5 52 -1
24 1 43 4 43 3 0 5 20 6 44 l1 43 -56 -1 c-37 0 -61 -6 -69 -16 -8 -8 -11 -10
-7 -3 4 8 -4 12 -25 10 -16 -1 -30 -6 -30 -11 0 -5 -8 -2 -17 5 -13 11 -15 11
-9 1 6 -10 3 -13 -10 -12 -11 1 -21 1 -24 0 -13 -5 -49 -10 -85 -12 -22 -2
-43 -7 -47 -13 -5 -6 -8 -6 -8 2 0 6 -15 12 -32 12 -47 2 -72 6 -84 14 -6 3
-25 8 -43 9 -17 1 -31 5 -31 8 0 6 -51 11 -137 13 -29 1 -53 4 -53 8 0 4 -8 6
-18 4 -9 -1 -24 3 -32 10 -8 7 -30 18 -47 26 -18 8 -33 17 -33 21 0 5 -5 8
-11 8 -7 0 -20 10 -30 22 -11 11 -19 17 -19 12 0 -5 -4 -4 -8 1 -4 6 -16 15
-27 21 -16 9 -23 8 -32 -5 -8 -10 -15 -12 -20 -6 -9 12 -33 13 -50 2 -7 -5
-18 -5 -23 -2 -5 3 -10 1 -10 -4 0 -6 -7 -11 -16 -11 -8 0 -12 -4 -9 -10 3 -5
3 -16 -2 -22 -4 -7 -9 -22 -11 -33 -7 -37 -8 -40 -16 -54 -7 -11 -6 -12 5 -6
12 7 12 6 1 -7 -7 -9 -14 -32 -15 -52 -1 -20 -5 -36 -9 -36 -13 0 11 -61 35
-90 22 -25 24 -34 17 -67 -10 -40 -42 -72 -77 -74 -13 -1 -27 -3 -33 -4 -5 -1
-22 -3 -37 -4 -19 -1 -24 -4 -15 -9 10 -7 8 -15 -8 -35 -12 -16 -16 -27 -10
-27 7 0 10 -7 7 -15 -4 -8 -2 -17 4 -20 5 -4 7 -10 4 -14 -2 -5 6 -21 19 -36
42 -48 40 -99 -4 -143 -31 -32 -27 -31 -157 -32 -51 -1 -95 -6 -99 -11 -4 -6
-11 -6 -20 2 -11 9 -14 9 -14 0 0 -7 -4 -9 -10 -6 -5 3 -10 2 -10 -4 0 -22
-171 -34 -191 -14 -6 6 -11 31 -11 55 1 67 -18 140 -44 171 -13 16 -24 25 -24
20 0 -4 -4 -3 -8 3 -4 6 -36 35 -72 65 -36 29 -68 59 -73 65 -4 7 -14 20 -23
28 -24 24 -64 119 -70 167 -3 24 -9 55 -14 69 -5 14 -11 50 -14 80 -3 30 -8
66 -11 80 -3 14 -7 30 -9 36 -5 27 -54 86 -90 110 -21 14 -36 22 -32 16z"/>
</g>
</svg>
